<?xml version="1.0" encoding="utf-8"?>
<!-- Svg Vector Icons : http://www.onlinewebfonts.com/icon -->
<!DOCTYPE svg PUBLIC "-//W3C//DTD SVG 1.1//EN" "http://www.w3.org/Graphics/SVG/1.1/DTD/svg11.dtd">
<svg version="1.1" xmlns="http://www.w3.org/2000/svg" xmlns:xlink="http://www.w3.org/1999/xlink" x="0px" y="0px" viewBox="0 0 1000 1000" enable-background="new 0 0 1000 1000" xml:space="preserve">
<metadata> Svg Vector Icons : http://www.onlinewebfonts.com/icon </metadata>
<g><g transform="translate(0.000000,512.000000) scale(0.100000,-0.100000)"><path d="M3950.2,4999.6c-940.7-95.8-1845-519.2-2536.6-1185.9C-349,2112.4-335.6-690.5,1440.4-2380.3c530.7-503.9,1159.1-854.5,1858.4-1036.5c406.2-105.4,641.8-134.1,1092-134.1s685.9,28.7,1090.1,134.1c751,195.4,1373.7,555.6,1936.9,1118.9C8082.7-1635,8467.8-885.9,8628.7,58.6c34.5,197.3,42.1,316.1,42.1,670.5c0,465.6-28.7,703.1-132.2,1099.7c-293.1,1124.6-1078.6,2120.8-2117,2680.3C5685.9,4905.7,4789.3,5083.8,3950.2,4999.6z M4770.2,4386.5c737.6-80.5,1421.6-371.7,1986.7-844.9c944.5-789.3,1429.2-2009.7,1283.6-3234c-201.2-1701.3-1525-3025.1-3228.2-3228.2c-563.3-67.1-1149.5,1.9-1699.4,201.2c-532.6,193.5-1097.8,582.4-1482.9,1021.1C430.8-330.3,407.8,1698.5,1578.4,3095.2C2354.3,4024.4,3576.6,4516.8,4770.2,4386.5z"/><path d="M7843.2-2736.7l-216.5-222.2l896.6-892.8c804.7-804.7,906.2-898.5,980.9-917.7c233.7-61.3,446.4,151.4,385.1,383.2c-21.1,78.5-111.1,174.3-915.8,982.8c-492.4,492.4-898.5,892.8-904.3,890.9C8063.5-2512.5,7962-2614,7843.2-2736.7z"/></g></g>
</svg>